<?xml version="1.0" standalone="no"?>
<!DOCTYPE svg PUBLIC "-//W3C//DTD SVG 20010904//EN"
 "http://www.w3.org/TR/2001/REC-SVG-20010904/DTD/svg10.dtd">
<svg version="1.0" xmlns="http://www.w3.org/2000/svg"
 width="31.000000pt" height="32.000000pt" viewBox="0 0 31.000000 32.000000"
 preserveAspectRatio="xMidYMid meet">

<g transform="translate(0.000000,32.000000) scale(0.100000,-0.100000)"
fill="#000000" stroke="none">
<path d="M135 280 l-16 -31 37 -15 c20 -8 38 -13 41 -11 5 5 -35 87 -42 87 -2
0 -12 -14 -20 -30z"/>
<path d="M55 113 c-22 -47 -41 -90 -43 -95 -2 -4 62 -8 143 -8 130 0 146 2
141 16 -3 9 -6 18 -6 20 0 11 -44 2 -54 -11 -10 -13 -14 -13 -40 0 -15 8 -48
15 -72 15 -24 0 -44 5 -44 10 0 6 11 33 25 60 24 48 25 80 1 80 -6 0 -29 -39
-51 -87z"/>
<path d="M240 113 c0 -13 5 -23 10 -23 13 0 13 11 0 30 -8 12 -10 11 -10 -7z"/>
</g>
</svg>
